<svg xmlns="http://www.w3.org/2000/svg" xmlns:xlink="http://www.w3.org/1999/xlink" width="49" zoomAndPan="magnify" viewBox="0 0 36.75 36.75" height="49" preserveAspectRatio="xMidYMid meet" version="1.0"><defs><clipPath id="9704e66bba"><path d="M 3.308594 0 L 33 0 L 33 35.757812 L 3.308594 35.757812 Z M 3.308594 0 " clip-rule="nonzero"/></clipPath></defs><g clip-path="url(#9704e66bba)"><path fill="#9645ff" d="M 18.078125 0 L 3.316406 6.558594 L 3.316406 16.402344 C 3.316406 29.242188 13.878906 35.238281 18.078125 36.082031 C 22.277344 35.238281 32.839844 29.242188 32.839844 16.402344 L 32.839844 6.558594 Z M 18.078125 3.589844 L 29.558594 8.695312 L 29.558594 16.402344 C 29.558594 26.460938 21.710938 31.578125 18.078125 32.699219 C 14.445312 31.578125 6.597656 26.460938 6.597656 16.402344 L 6.597656 8.695312 Z M 25.941406 11.144531 L 16.4375 20.640625 L 11.894531 16.097656 L 9.574219 18.417969 L 16.4375 25.28125 L 28.253906 13.460938 Z M 25.941406 11.144531 " fill-opacity="1" fill-rule="nonzero"/></g></svg>