<svg xmlns="http://www.w3.org/2000/svg" xmlns:xlink="http://www.w3.org/1999/xlink" width="49" zoomAndPan="magnify" viewBox="0 0 36.75 36.75" height="49" preserveAspectRatio="xMidYMid meet" version="1.0"><defs><clipPath id="cbf22f5412"><path d="M 5 14 L 32 14 L 32 35.648438 L 5 35.648438 Z M 5 14 " clip-rule="nonzero"/></clipPath><clipPath id="74636d4e6c"><path d="M 0.683594 19 L 7 19 L 7 31 L 0.683594 31 Z M 0.683594 19 " clip-rule="nonzero"/></clipPath><clipPath id="a1d31c2368"><path d="M 30 19 L 36.441406 19 L 36.441406 31 L 30 31 Z M 30 19 " clip-rule="nonzero"/></clipPath><clipPath id="eeb5a202e3"><path d="M 14 1.382812 L 36 1.382812 L 36 22 L 14 22 Z M 14 1.382812 " clip-rule="nonzero"/></clipPath><clipPath id="274b908d8b"><path d="M 0.683594 7 L 7 7 L 7 14 L 0.683594 14 Z M 0.683594 7 " clip-rule="nonzero"/></clipPath></defs><g clip-path="url(#cbf22f5412)"><path fill="#9645ff" d="M 25.945312 35.796875 L 11.238281 35.796875 C 8.039062 35.796875 5.4375 33.195312 5.4375 29.996094 L 5.4375 19.917969 C 5.4375 16.71875 8.039062 14.117188 11.238281 14.117188 L 15.273438 14.117188 C 15.53125 14.117188 15.757812 14.292969 15.816406 14.546875 C 16.039062 15.460938 16.882812 16.125 17.820312 16.125 L 19.386719 16.125 C 19.535156 16.125 19.679688 16.183594 19.785156 16.289062 C 19.890625 16.394531 19.949219 16.535156 19.949219 16.683594 L 19.945312 19.625 L 24.089844 16.25 C 24.191406 16.167969 24.316406 16.125 24.445312 16.125 L 30.058594 16.125 C 30.230469 16.125 30.394531 16.203125 30.5 16.335938 C 31.316406 17.371094 31.746094 18.609375 31.746094 19.917969 L 31.746094 29.992188 C 31.746094 33.195312 29.144531 35.796875 25.945312 35.796875 Z M 11.238281 15.238281 C 8.660156 15.238281 6.558594 17.335938 6.558594 19.917969 L 6.558594 29.996094 C 6.558594 32.578125 8.65625 34.675781 11.238281 34.675781 L 25.945312 34.675781 C 28.523438 34.675781 30.625 32.578125 30.625 29.996094 L 30.625 19.917969 C 30.625 18.953125 30.335938 18.03125 29.78125 17.242188 L 24.644531 17.242188 L 19.738281 21.234375 C 19.574219 21.371094 19.34375 21.398438 19.148438 21.304688 C 18.953125 21.214844 18.828125 21.015625 18.828125 20.800781 L 18.828125 17.242188 L 17.820312 17.242188 C 16.5 17.242188 15.339844 16.4375 14.867188 15.238281 Z M 11.238281 15.238281 " fill-opacity="1" fill-rule="evenodd"/></g><g clip-path="url(#74636d4e6c)"><path fill="#9645ff" d="M 5.996094 30.144531 L 3.867188 30.144531 C 2.113281 30.144531 0.6875 28.71875 0.6875 26.964844 L 0.6875 22.949219 C 0.6875 21.195312 2.113281 19.769531 3.867188 19.769531 L 5.996094 19.769531 C 6.308594 19.769531 6.558594 20.019531 6.558594 20.328125 L 6.558594 29.585938 C 6.558594 29.894531 6.308594 30.144531 5.996094 30.144531 Z M 3.867188 20.890625 C 2.730469 20.890625 1.804688 21.8125 1.804688 22.949219 L 1.804688 26.964844 C 1.804688 28.101562 2.730469 29.027344 3.867188 29.027344 L 5.4375 29.027344 L 5.4375 20.890625 Z M 3.867188 20.890625 " fill-opacity="1" fill-rule="evenodd"/></g><g clip-path="url(#a1d31c2368)"><path fill="#9645ff" d="M 33.316406 30.144531 L 31.183594 30.144531 C 30.875 30.144531 30.625 29.894531 30.625 29.585938 L 30.625 20.328125 C 30.625 20.019531 30.875 19.769531 31.183594 19.769531 L 33.316406 19.769531 C 35.070312 19.769531 36.496094 21.195312 36.496094 22.949219 L 36.496094 26.964844 C 36.496094 28.71875 35.070312 30.144531 33.316406 30.144531 Z M 31.746094 29.027344 L 33.316406 29.027344 C 34.453125 29.027344 35.378906 28.101562 35.378906 26.964844 L 35.378906 22.949219 C 35.378906 21.8125 34.453125 20.890625 33.316406 20.890625 L 31.746094 20.890625 Z M 31.746094 29.027344 " fill-opacity="1" fill-rule="evenodd"/></g><path fill="#9645ff" d="M 13.347656 24.675781 C 13.039062 24.675781 12.789062 24.421875 12.789062 24.113281 L 12.789062 21.503906 C 12.789062 21.195312 13.039062 20.945312 13.347656 20.945312 C 13.660156 20.945312 13.910156 21.195312 13.910156 21.503906 L 13.910156 24.113281 C 13.910156 24.421875 13.660156 24.675781 13.347656 24.675781 Z M 13.347656 24.675781 " fill-opacity="1" fill-rule="evenodd"/><path fill="#9645ff" d="M 23.832031 24.65625 C 23.523438 24.65625 23.273438 24.40625 23.273438 24.097656 L 23.273438 21.519531 C 23.273438 21.210938 23.523438 20.960938 23.832031 20.960938 C 24.144531 20.960938 24.394531 21.210938 24.394531 21.519531 L 24.394531 24.097656 C 24.394531 24.40625 24.144531 24.65625 23.832031 24.65625 Z M 23.832031 24.65625 " fill-opacity="1" fill-rule="evenodd"/><path fill="#9645ff" d="M 21.335938 28.96875 L 15.847656 28.96875 C 15.539062 28.96875 15.289062 28.71875 15.289062 28.410156 C 15.289062 28.101562 15.539062 27.851562 15.847656 27.851562 L 21.335938 27.851562 C 21.644531 27.851562 21.894531 28.101562 21.894531 28.410156 C 21.894531 28.71875 21.644531 28.96875 21.335938 28.96875 Z M 21.335938 28.96875 " fill-opacity="1" fill-rule="evenodd"/><g clip-path="url(#eeb5a202e3)"><path fill="#9645ff" d="M 19.386719 21.359375 C 19.304688 21.359375 19.222656 21.34375 19.148438 21.304688 C 18.953125 21.214844 18.828125 21.015625 18.828125 20.800781 L 18.828125 17.242188 L 17.820312 17.242188 C 16.066406 17.242188 14.640625 15.816406 14.640625 14.0625 L 14.640625 4.5625 C 14.640625 2.808594 16.066406 1.378906 17.820312 1.378906 L 32.8125 1.378906 C 34.566406 1.378906 35.992188 2.808594 35.992188 4.5625 L 35.992188 14.0625 C 35.992188 15.816406 34.5625 17.242188 32.8125 17.242188 L 24.644531 17.242188 L 19.738281 21.234375 C 19.640625 21.316406 19.511719 21.359375 19.386719 21.359375 Z M 17.820312 2.5 C 16.683594 2.5 15.757812 3.425781 15.757812 4.5625 L 15.757812 14.0625 C 15.757812 15.199219 16.683594 16.125 17.820312 16.125 L 19.386719 16.125 C 19.535156 16.125 19.679688 16.183594 19.785156 16.289062 C 19.890625 16.394531 19.949219 16.535156 19.949219 16.683594 L 19.945312 19.625 L 24.089844 16.25 C 24.191406 16.167969 24.316406 16.125 24.445312 16.125 L 32.808594 16.125 C 33.945312 16.125 34.871094 15.199219 34.871094 14.0625 L 34.871094 4.5625 C 34.871094 3.425781 33.945312 2.5 32.808594 2.5 Z M 17.820312 2.5 " fill-opacity="1" fill-rule="evenodd"/></g><path fill="#9645ff" d="M 19.949219 11.34375 C 18.828125 11.34375 17.917969 10.433594 17.917969 9.3125 C 17.917969 8.191406 18.828125 7.277344 19.949219 7.277344 C 21.070312 7.277344 21.984375 8.191406 21.984375 9.3125 C 21.984375 10.433594 21.070312 11.34375 19.949219 11.34375 Z M 19.949219 8.398438 C 19.445312 8.398438 19.035156 8.808594 19.035156 9.3125 C 19.035156 9.816406 19.445312 10.226562 19.949219 10.226562 C 20.453125 10.226562 20.867188 9.816406 20.867188 9.3125 C 20.867188 8.808594 20.453125 8.398438 19.949219 8.398438 Z M 19.949219 8.398438 " fill-opacity="1" fill-rule="evenodd"/><path fill="#9645ff" d="M 25.316406 11.34375 C 24.195312 11.34375 23.28125 10.433594 23.28125 9.3125 C 23.28125 8.191406 24.195312 7.277344 25.316406 7.277344 C 26.4375 7.277344 27.347656 8.191406 27.347656 9.3125 C 27.347656 10.433594 26.4375 11.34375 25.316406 11.34375 Z M 25.316406 8.398438 C 24.8125 8.398438 24.398438 8.808594 24.398438 9.3125 C 24.398438 9.816406 24.8125 10.226562 25.316406 10.226562 C 25.820312 10.226562 26.230469 9.816406 26.230469 9.3125 C 26.230469 8.808594 25.820312 8.398438 25.316406 8.398438 Z M 25.316406 8.398438 " fill-opacity="1" fill-rule="evenodd"/><path fill="#9645ff" d="M 30.679688 11.34375 C 29.558594 11.34375 28.648438 10.433594 28.648438 9.3125 C 28.648438 8.191406 29.558594 7.277344 30.679688 7.277344 C 31.800781 7.277344 32.714844 8.191406 32.714844 9.3125 C 32.714844 10.433594 31.800781 11.34375 30.679688 11.34375 Z M 30.679688 8.398438 C 30.175781 8.398438 29.765625 8.808594 29.765625 9.3125 C 29.765625 9.816406 30.175781 10.226562 30.679688 10.226562 C 31.183594 10.226562 31.59375 9.816406 31.59375 9.3125 C 31.59375 8.808594 31.183594 8.398438 30.679688 8.398438 Z M 30.679688 8.398438 " fill-opacity="1" fill-rule="evenodd"/><path fill="#9645ff" d="M 3.867188 20.890625 C 3.558594 20.890625 3.308594 20.636719 3.308594 20.328125 L 3.308594 12.886719 C 3.308594 12.578125 3.558594 12.328125 3.867188 12.328125 C 4.175781 12.328125 4.429688 12.578125 4.429688 12.886719 L 4.429688 20.328125 C 4.429688 20.636719 4.175781 20.890625 3.867188 20.890625 Z M 3.867188 20.890625 " fill-opacity="1" fill-rule="evenodd"/><g clip-path="url(#274b908d8b)"><path fill="#9645ff" d="M 3.867188 13.449219 C 2.277344 13.449219 0.984375 12.152344 0.984375 10.5625 C 0.984375 8.972656 2.277344 7.679688 3.867188 7.679688 C 5.457031 7.679688 6.753906 8.972656 6.753906 10.5625 C 6.753906 12.152344 5.457031 13.449219 3.867188 13.449219 Z M 3.867188 8.800781 C 2.894531 8.800781 2.101562 9.589844 2.101562 10.5625 C 2.101562 11.535156 2.894531 12.328125 3.867188 12.328125 C 4.839844 12.328125 5.632812 11.535156 5.632812 10.5625 C 5.632812 9.589844 4.839844 8.800781 3.867188 8.800781 Z M 3.867188 8.800781 " fill-opacity="1" fill-rule="evenodd"/></g></svg>