<svg xmlns="http://www.w3.org/2000/svg" xmlns:xlink="http://www.w3.org/1999/xlink" width="49" zoomAndPan="magnify" viewBox="0 0 36.75 36.75" height="49" preserveAspectRatio="xMidYMid meet" version="1.0"><defs><clipPath id="c641e63142"><path d="M 2.414062 0.480469 L 34 0.480469 L 34 36.238281 L 2.414062 36.238281 Z M 2.414062 0.480469 " clip-rule="nonzero"/></clipPath></defs><g clip-path="url(#c641e63142)"><path fill="#9645ff" d="M 5.277344 11.445312 C 4.769531 11.847656 4.050781 11.921875 3.457031 11.578125 C 2.679688 11.132812 2.414062 10.140625 2.863281 9.367188 C 3.308594 8.589844 4.300781 8.324219 5.078125 8.773438 C 5.671875 9.113281 5.964844 9.777344 5.871094 10.417969 L 7.851562 11.5625 C 8.808594 10.078125 10.078125 8.808594 11.5625 7.851562 L 10.417969 5.871094 C 9.777344 5.964844 9.113281 5.671875 8.773438 5.078125 C 8.324219 4.300781 8.589844 3.308594 9.367188 2.863281 C 10.140625 2.414062 11.132812 2.679688 11.582031 3.457031 C 11.921875 4.050781 11.847656 4.769531 11.445312 5.277344 L 12.585938 7.257812 C 14.117188 6.464844 15.835938 5.984375 17.65625 5.898438 L 17.65625 3.613281 C 17.054688 3.375 16.628906 2.789062 16.628906 2.101562 C 16.628906 1.207031 17.355469 0.480469 18.25 0.480469 C 19.144531 0.480469 19.871094 1.207031 19.871094 2.101562 C 19.871094 2.789062 19.445312 3.375 18.839844 3.613281 L 18.839844 5.898438 C 20.664062 5.984375 22.378906 6.464844 23.910156 7.257812 L 25.054688 5.277344 C 24.652344 4.769531 24.574219 4.050781 24.917969 3.457031 C 25.367188 2.679688 26.359375 2.414062 27.132812 2.863281 C 27.910156 3.308594 28.175781 4.300781 27.726562 5.078125 C 27.382812 5.671875 26.722656 5.964844 26.082031 5.871094 L 24.9375 7.851562 C 26.421875 8.808594 27.691406 10.078125 28.648438 11.5625 L 30.628906 10.417969 C 30.53125 9.777344 30.828125 9.113281 31.421875 8.773438 C 32.195312 8.324219 33.191406 8.589844 33.636719 9.367188 C 34.085938 10.140625 33.820312 11.132812 33.042969 11.578125 C 32.449219 11.921875 31.726562 11.847656 31.222656 11.445312 L 29.242188 12.585938 C 29.328125 12.757812 29.414062 12.929688 29.492188 13.101562 C 29.628906 13.398438 29.5 13.75 29.203125 13.886719 C 28.902344 14.023438 28.550781 13.894531 28.414062 13.59375 C 26.648438 9.746094 22.757812 7.070312 18.25 7.070312 C 13.738281 7.070312 9.851562 9.746094 8.082031 13.59375 C 7.945312 13.894531 7.59375 14.023438 7.296875 13.886719 C 7 13.75 6.871094 13.398438 7.007812 13.101562 C 7.085938 12.929688 7.171875 12.757812 7.257812 12.585938 Z M 5.277344 25.054688 L 7.257812 23.910156 C 7.171875 23.742188 7.085938 23.570312 7.007812 23.398438 C 6.871094 23.101562 7 22.746094 7.296875 22.613281 C 7.59375 22.476562 7.945312 22.605469 8.082031 22.902344 C 9.851562 26.753906 13.738281 29.429688 18.25 29.429688 C 22.757812 29.429688 26.648438 26.753906 28.414062 22.902344 C 28.550781 22.605469 28.902344 22.476562 29.203125 22.613281 C 29.5 22.746094 29.628906 23.101562 29.492188 23.398438 C 29.414062 23.570312 29.328125 23.742188 29.242188 23.910156 L 31.222656 25.054688 C 31.726562 24.652344 32.449219 24.574219 33.042969 24.917969 C 33.820312 25.367188 34.085938 26.359375 33.636719 27.132812 C 33.191406 27.90625 32.195312 28.175781 31.421875 27.726562 C 30.828125 27.382812 30.53125 26.71875 30.628906 26.082031 L 28.648438 24.9375 C 27.691406 26.421875 26.421875 27.691406 24.9375 28.648438 L 26.082031 30.628906 C 26.722656 30.53125 27.382812 30.828125 27.726562 31.421875 C 28.175781 32.195312 27.910156 33.1875 27.132812 33.636719 C 26.359375 34.085938 25.367188 33.816406 24.917969 33.042969 C 24.574219 32.449219 24.652344 31.726562 25.054688 31.222656 L 23.910156 29.242188 C 22.378906 30.03125 20.664062 30.511719 18.839844 30.597656 L 18.839844 32.886719 C 19.445312 33.121094 19.871094 33.710938 19.871094 34.394531 C 19.871094 35.289062 19.144531 36.015625 18.25 36.015625 C 17.355469 36.015625 16.628906 35.289062 16.628906 34.394531 C 16.628906 33.710938 17.054688 33.121094 17.65625 32.886719 L 17.65625 30.597656 C 15.835938 30.511719 14.117188 30.03125 12.585938 29.242188 L 11.445312 31.222656 C 11.847656 31.726562 11.921875 32.449219 11.582031 33.042969 C 11.132812 33.816406 10.140625 34.085938 9.367188 33.636719 C 8.589844 33.1875 8.324219 32.195312 8.773438 31.421875 C 9.113281 30.828125 9.777344 30.53125 10.417969 30.628906 L 11.5625 28.648438 C 10.078125 27.691406 8.808594 26.421875 7.851562 24.9375 L 5.871094 26.082031 C 5.964844 26.71875 5.671875 27.382812 5.078125 27.726562 C 4.300781 28.175781 3.308594 27.90625 2.863281 27.132812 C 2.414062 26.359375 2.679688 25.367188 3.457031 24.917969 C 4.050781 24.574219 4.769531 24.652344 5.277344 25.054688 Z M 20.148438 10.296875 C 20.988281 10.5 21.792969 10.832031 22.53125 11.285156 L 24.078125 10.597656 L 25.902344 12.421875 L 25.214844 13.96875 C 25.671875 14.707031 26.003906 15.507812 26.203125 16.351562 L 27.78125 16.960938 L 27.78125 19.539062 L 26.203125 20.148438 C 26.003906 20.988281 25.667969 21.792969 25.214844 22.53125 L 25.902344 24.078125 L 24.078125 25.902344 L 22.53125 25.214844 C 21.792969 25.667969 20.988281 26.003906 20.148438 26.203125 L 19.539062 27.78125 L 16.960938 27.78125 L 16.351562 26.203125 C 15.507812 26.003906 14.707031 25.667969 13.96875 25.214844 L 12.421875 25.902344 L 10.597656 24.078125 L 11.285156 22.53125 C 10.832031 21.792969 10.5 20.988281 10.296875 20.148438 L 8.71875 19.539062 L 8.71875 16.960938 L 10.296875 16.351562 C 10.5 15.507812 10.832031 14.707031 11.285156 13.96875 L 10.597656 12.421875 L 12.421875 10.597656 L 13.96875 11.285156 C 14.707031 10.832031 15.507812 10.5 16.351562 10.296875 L 16.960938 8.71875 L 19.539062 8.71875 Z M 18.25 12.871094 C 15.277344 12.871094 12.871094 15.277344 12.871094 18.25 C 12.871094 21.222656 15.277344 23.628906 18.25 23.628906 C 21.222656 23.628906 23.628906 21.222656 23.628906 18.25 C 23.628906 15.277344 21.222656 12.871094 18.25 12.871094 Z M 15.78125 18.789062 C 15.550781 18.558594 15.550781 18.183594 15.78125 17.953125 C 16.015625 17.722656 16.390625 17.722656 16.621094 17.953125 C 16.621094 17.953125 17.417969 18.75 17.417969 18.75 L 19.902344 16.492188 C 20.144531 16.273438 20.519531 16.292969 20.738281 16.535156 C 20.957031 16.777344 20.941406 17.152344 20.699219 17.371094 L 17.792969 20.003906 C 17.5625 20.21875 17.203125 20.207031 16.976562 19.984375 Z M 15.78125 18.789062 " fill-opacity="1" fill-rule="evenodd"/></g></svg>