<svg xmlns="http://www.w3.org/2000/svg" xmlns:xlink="http://www.w3.org/1999/xlink" width="49" zoomAndPan="magnify" viewBox="0 0 36.75 36.75" height="49" preserveAspectRatio="xMidYMid meet" version="1.0"><defs><clipPath id="4f3632ffaa"><path d="M 0.503906 0.503906 L 28 0.503906 L 28 28 L 0.503906 28 Z M 0.503906 0.503906 " clip-rule="nonzero"/></clipPath></defs><path fill="#9645ff" d="M 21.144531 23.359375 L 23.355469 21.148438 L 27.847656 25.636719 L 25.636719 27.847656 Z M 21.144531 23.359375 " fill-opacity="1" fill-rule="nonzero"/><path fill="#9645ff" d="M 34.933594 30.214844 C 35.914062 31.191406 35.914062 32.777344 34.933594 33.757812 L 33.753906 34.933594 C 32.777344 35.914062 31.191406 35.914062 30.214844 34.933594 L 23.894531 28.613281 C 22.914062 27.632812 22.914062 26.050781 23.894531 25.074219 L 25.074219 23.894531 C 26.050781 22.914062 27.636719 22.914062 28.613281 23.894531 Z M 34.933594 30.214844 " fill-opacity="1" fill-rule="nonzero"/><g clip-path="url(#4f3632ffaa)"><path fill="#9645ff" d="M 13.929688 0.488281 C 6.503906 0.488281 0.488281 6.503906 0.488281 13.929688 C 0.488281 21.359375 6.503906 27.378906 13.929688 27.378906 C 21.359375 27.378906 27.378906 21.359375 27.378906 13.929688 C 27.378906 6.503906 21.359375 0.488281 13.929688 0.488281 Z M 13.929688 24.890625 C 7.878906 24.890625 2.972656 19.984375 2.972656 13.929688 C 2.972656 7.878906 7.878906 2.972656 13.929688 2.972656 C 19.984375 2.972656 24.890625 7.878906 24.890625 13.929688 C 24.890625 19.984375 19.984375 24.890625 13.929688 24.890625 Z M 13.929688 24.890625 " fill-opacity="1" fill-rule="nonzero"/></g><path fill="#9645ff" d="M 16.6875 20.585938 C 11.324219 20.585938 6.972656 16.238281 6.972656 10.871094 C 6.972656 10.730469 6.988281 10.589844 6.996094 10.449219 C 6.289062 11.59375 5.871094 12.941406 5.871094 14.382812 C 5.871094 18.53125 9.234375 21.894531 13.382812 21.894531 C 14.984375 21.894531 16.464844 21.390625 17.683594 20.535156 C 17.355469 20.570312 17.023438 20.585938 16.6875 20.585938 Z M 16.6875 20.585938 " fill-opacity="1" fill-rule="nonzero"/></svg>