<svg xmlns="http://www.w3.org/2000/svg" xmlns:xlink="http://www.w3.org/1999/xlink" width="49" zoomAndPan="magnify" viewBox="0 0 36.75 36.75" height="49" preserveAspectRatio="xMidYMid meet" version="1.0"><defs><clipPath id="a313dd4530"><path d="M 0.820312 5.808594 L 35.832031 5.808594 L 35.832031 30.394531 L 0.820312 30.394531 Z M 0.820312 5.808594 " clip-rule="nonzero"/></clipPath></defs><g clip-path="url(#a313dd4530)"><path fill="#9645ff" d="M 29.324219 15.875 C 28.75 10.230469 24.039062 5.808594 18.246094 5.808594 C 13.300781 5.808594 9.152344 9.039062 7.671875 13.484375 C 3.765625 14.34375 0.832031 17.8125 0.832031 21.976562 C 0.832031 26.785156 4.730469 30.683594 9.539062 30.683594 L 28.195312 30.683594 C 32.316406 30.683594 35.65625 27.34375 35.65625 23.222656 C 35.65625 19.488281 32.90625 16.421875 29.324219 15.875 Z M 20.734375 18.246094 L 20.734375 25.710938 L 15.757812 25.710938 L 15.757812 18.246094 L 10.785156 18.246094 L 18.246094 10.785156 L 25.707031 18.246094 Z M 20.734375 18.246094 " fill-opacity="1" fill-rule="nonzero"/></g></svg>