<svg xmlns="http://www.w3.org/2000/svg" xmlns:xlink="http://www.w3.org/1999/xlink" width="49" zoomAndPan="magnify" viewBox="0 0 36.75 36.75" height="49" preserveAspectRatio="xMidYMid meet" version="1.0"><defs><clipPath id="bc2df93b62"><path d="M 0.464844 0.925781 L 36.21875 0.925781 L 36.21875 30 L 0.464844 30 Z M 0.464844 0.925781 " clip-rule="nonzero"/></clipPath><clipPath id="cb4bc86ab9"><path d="M 9 30 L 26 30 L 26 36.5 L 9 36.5 Z M 9 30 " clip-rule="nonzero"/></clipPath></defs><g clip-path="url(#bc2df93b62)"><path fill="#9645ff" d="M 34.980469 24.4375 L 1.519531 24.4375 L 1.519531 3.371094 C 1.519531 2.59375 2.132812 1.980469 2.90625 1.980469 L 33.585938 1.980469 C 34.367188 1.980469 34.980469 2.59375 34.980469 3.371094 Z M 33.589844 0.925781 L 2.90625 0.925781 C 1.574219 0.925781 0.464844 2.039062 0.464844 3.371094 L 0.464844 26.9375 C 0.464844 28.273438 1.574219 29.382812 2.90625 29.382812 L 33.585938 29.382812 C 34.921875 29.382812 36.035156 28.273438 36.035156 26.9375 L 36.035156 3.371094 C 36.035156 2.039062 34.921875 0.925781 33.585938 0.925781 L 33.589844 0.925781 " fill-opacity="1" fill-rule="nonzero"/></g><g clip-path="url(#cb4bc86ab9)"><path fill="#9645ff" d="M 25.640625 34.773438 L 25.640625 35.941406 C 25.640625 36.21875 25.417969 36.5 25.085938 36.5 L 10.300781 36.5 C 10.023438 36.5 9.746094 36.273438 9.746094 35.941406 L 9.746094 34.71875 C 9.746094 33.71875 10.46875 32.941406 11.414062 32.773438 L 13.027344 30.441406 L 22.417969 30.441406 L 24.03125 32.773438 C 24.917969 32.996094 25.640625 33.777344 25.640625 34.773438 " fill-opacity="1" fill-rule="nonzero"/></g><path fill="#9645ff" d="M 9.914062 9.097656 L 9.914062 4.429688 C 9.914062 4.152344 10.136719 3.875 10.46875 3.875 C 13.359375 3.875 15.695312 6.207031 15.695312 9.097656 C 15.695312 9.375 15.46875 9.652344 15.136719 9.652344 L 10.46875 9.652344 C 10.191406 9.652344 9.914062 9.433594 9.914062 9.097656 " fill-opacity="1" fill-rule="nonzero"/><path fill="#9645ff" d="M 13.523438 11.261719 C 13.523438 14.15625 11.191406 16.488281 8.300781 16.488281 C 5.414062 16.488281 3.074219 14.15625 3.074219 11.261719 C 3.074219 8.375 5.414062 6.039062 8.300781 6.039062 C 8.578125 6.039062 8.859375 6.261719 8.859375 6.597656 L 8.859375 10.765625 L 13.027344 10.765625 C 13.304688 10.765625 13.523438 10.988281 13.523438 11.261719 " fill-opacity="1" fill-rule="nonzero"/><path fill="#9645ff" d="M 22.253906 15.488281 L 22.253906 22.882812 C 22.253906 23.160156 22.027344 23.4375 21.699219 23.4375 L 19.359375 23.4375 C 19.082031 23.4375 18.804688 23.214844 18.804688 22.882812 L 18.804688 15.488281 C 18.804688 15.210938 19.027344 14.933594 19.359375 14.933594 L 21.75 14.933594 C 22.027344 14.933594 22.253906 15.210938 22.253906 15.488281 " fill-opacity="1" fill-rule="nonzero"/><path fill="#9645ff" d="M 27.753906 19.269531 L 27.753906 22.882812 C 27.753906 23.160156 27.53125 23.4375 27.199219 23.4375 L 24.808594 23.4375 C 24.53125 23.4375 24.253906 23.214844 24.253906 22.882812 L 24.253906 19.269531 C 24.253906 18.992188 24.476562 18.710938 24.808594 18.710938 L 27.199219 18.710938 C 27.53125 18.710938 27.753906 18.992188 27.753906 19.269531 " fill-opacity="1" fill-rule="nonzero"/><path fill="#9645ff" d="M 16.75 18.710938 L 16.75 22.933594 C 16.75 23.214844 16.523438 23.492188 16.191406 23.492188 L 13.800781 23.492188 C 13.523438 23.492188 13.246094 23.269531 13.246094 22.933594 L 13.246094 18.710938 C 13.246094 18.433594 13.472656 18.15625 13.800781 18.15625 L 16.191406 18.15625 C 16.523438 18.15625 16.75 18.382812 16.75 18.710938 " fill-opacity="1" fill-rule="nonzero"/><path fill="#9645ff" d="M 33.253906 12.820312 L 33.253906 22.882812 C 33.253906 23.160156 33.035156 23.4375 32.699219 23.4375 L 30.308594 23.4375 C 30.035156 23.4375 29.753906 23.214844 29.753906 22.882812 L 29.753906 12.820312 C 29.753906 12.542969 29.976562 12.265625 30.308594 12.265625 L 32.699219 12.265625 C 33.035156 12.320312 33.253906 12.542969 33.253906 12.820312 " fill-opacity="1" fill-rule="nonzero"/><path fill="#9645ff" d="M 27.476562 14.542969 C 28.976562 16.378906 26.363281 18.769531 24.699219 17.101562 C 24.195312 16.65625 24.03125 15.992188 24.195312 15.320312 C 24.195312 15.265625 24.195312 15.265625 24.253906 15.210938 L 21.75 13.488281 C 21.085938 14.042969 20.027344 14.097656 19.304688 13.375 L 16.917969 14.765625 C 17.195312 15.992188 16.304688 17.101562 15.082031 17.101562 C 14.027344 17.101562 13.191406 16.269531 13.191406 15.210938 C 13.191406 14.601562 13.472656 14.046875 13.914062 13.710938 C 14.414062 13.375 14.972656 13.210938 15.582031 13.375 C 15.859375 13.433594 16.136719 13.601562 16.359375 13.820312 L 18.746094 12.433594 C 18.695312 12.265625 18.695312 12.152344 18.695312 11.988281 C 18.695312 10.933594 19.527344 10.097656 20.585938 10.097656 C 21.808594 10.097656 22.753906 11.261719 22.417969 12.542969 L 22.417969 12.597656 L 24.917969 14.324219 C 25.417969 13.933594 26.085938 13.820312 26.699219 13.988281 L 30.199219 8.820312 C 29.921875 8.488281 29.753906 8.097656 29.753906 7.652344 C 29.753906 7.042969 30.035156 6.542969 30.476562 6.152344 C 31.53125 5.316406 33.144531 5.871094 33.480469 7.207031 C 33.585938 7.765625 33.480469 8.375 33.144531 8.820312 C 32.699219 9.375 31.921875 9.710938 31.089844 9.433594 L 27.476562 14.542969 " fill-opacity="1" fill-rule="nonzero"/></svg>